<mxfile host="app.diagrams.net" modified="2023-04-11T04:25:26.041Z" agent="Mozilla/5.0 (Windows NT 10.0; Win64; x64) AppleWebKit/537.36 (KHTML, like Gecko) Chrome/112.0.0.0 Safari/537.36 Edg/112.0.1722.39" etag="UtCC632g7dPQMHLwGmJw" version="21.1.5" type="device">
  <diagram name="第 1 页" id="2rbUqCJ2_FqEM3BXR5HH">
    <mxGraphModel dx="351" dy="242" grid="1" gridSize="10" guides="1" tooltips="1" connect="1" arrows="1" fold="1" page="1" pageScale="1" pageWidth="827" pageHeight="1169" math="0" shadow="0">
      <root>
        <mxCell id="0" />
        <mxCell id="1" parent="0" />
        <mxCell id="6Sh2aRhyjVpe4jSGeyy9-3" style="edgeStyle=orthogonalEdgeStyle;rounded=0;orthogonalLoop=1;jettySize=auto;html=1;entryX=0;entryY=0;entryDx=0;entryDy=0;" edge="1" parent="1" source="7O9n-pZLVOjYw03UP1dD-2" target="7O9n-pZLVOjYw03UP1dD-17">
          <mxGeometry relative="1" as="geometry">
            <mxPoint x="190" y="600" as="targetPoint" />
            <Array as="points">
              <mxPoint x="330" y="190" />
              <mxPoint x="190" y="190" />
              <mxPoint x="190" y="600" />
            </Array>
          </mxGeometry>
        </mxCell>
        <mxCell id="7O9n-pZLVOjYw03UP1dD-2" value="" style="rounded=0;whiteSpace=wrap;html=1;" parent="1" vertex="1">
          <mxGeometry x="310" y="120" width="40" height="50" as="geometry" />
        </mxCell>
        <mxCell id="6Sh2aRhyjVpe4jSGeyy9-2" style="edgeStyle=orthogonalEdgeStyle;rounded=0;orthogonalLoop=1;jettySize=auto;html=1;" edge="1" parent="1" source="7O9n-pZLVOjYw03UP1dD-6">
          <mxGeometry relative="1" as="geometry">
            <mxPoint x="370" y="200" as="targetPoint" />
            <Array as="points">
              <mxPoint x="370" y="190" />
              <mxPoint x="370" y="190" />
            </Array>
          </mxGeometry>
        </mxCell>
        <mxCell id="7O9n-pZLVOjYw03UP1dD-6" value="" style="rounded=0;whiteSpace=wrap;html=1;" parent="1" vertex="1">
          <mxGeometry x="350" y="120" width="40" height="50" as="geometry" />
        </mxCell>
        <mxCell id="7O9n-pZLVOjYw03UP1dD-7" value="prev size" style="rounded=0;whiteSpace=wrap;html=1;" parent="1" vertex="1">
          <mxGeometry x="294" y="200" width="120" height="20" as="geometry" />
        </mxCell>
        <mxCell id="7O9n-pZLVOjYw03UP1dD-8" value="size" style="rounded=0;whiteSpace=wrap;html=1;" parent="1" vertex="1">
          <mxGeometry x="294" y="220" width="120" height="20" as="geometry" />
        </mxCell>
        <mxCell id="7O9n-pZLVOjYw03UP1dD-33" style="edgeStyle=orthogonalEdgeStyle;rounded=0;orthogonalLoop=1;jettySize=auto;html=1;entryX=1;entryY=0;entryDx=0;entryDy=0;" parent="1" source="7O9n-pZLVOjYw03UP1dD-9" target="7O9n-pZLVOjYw03UP1dD-12" edge="1">
          <mxGeometry relative="1" as="geometry">
            <mxPoint x="420" y="400" as="targetPoint" />
            <Array as="points">
              <mxPoint x="440" y="250" />
              <mxPoint x="440" y="400" />
            </Array>
          </mxGeometry>
        </mxCell>
        <mxCell id="7O9n-pZLVOjYw03UP1dD-9" value="fd" style="rounded=0;whiteSpace=wrap;html=1;" parent="1" vertex="1">
          <mxGeometry x="294" y="240" width="120" height="20" as="geometry" />
        </mxCell>
        <mxCell id="7O9n-pZLVOjYw03UP1dD-30" style="edgeStyle=orthogonalEdgeStyle;rounded=0;orthogonalLoop=1;jettySize=auto;html=1;entryX=0;entryY=0.4;entryDx=0;entryDy=0;entryPerimeter=0;" parent="1" source="7O9n-pZLVOjYw03UP1dD-10" target="7O9n-pZLVOjYw03UP1dD-2" edge="1">
          <mxGeometry relative="1" as="geometry">
            <mxPoint x="270" y="140" as="targetPoint" />
            <Array as="points">
              <mxPoint x="270" y="270" />
              <mxPoint x="270" y="140" />
            </Array>
          </mxGeometry>
        </mxCell>
        <mxCell id="7O9n-pZLVOjYw03UP1dD-10" value="bk" style="rounded=0;whiteSpace=wrap;html=1;" parent="1" vertex="1">
          <mxGeometry x="294" y="260" width="120" height="20" as="geometry" />
        </mxCell>
        <mxCell id="7O9n-pZLVOjYw03UP1dD-11" value="" style="rounded=0;whiteSpace=wrap;html=1;" parent="1" vertex="1">
          <mxGeometry x="294" y="280" width="120" height="60" as="geometry" />
        </mxCell>
        <mxCell id="7O9n-pZLVOjYw03UP1dD-12" value="prev size" style="rounded=0;whiteSpace=wrap;html=1;" parent="1" vertex="1">
          <mxGeometry x="294" y="400" width="120" height="20" as="geometry" />
        </mxCell>
        <mxCell id="7O9n-pZLVOjYw03UP1dD-13" value="size" style="rounded=0;whiteSpace=wrap;html=1;" parent="1" vertex="1">
          <mxGeometry x="294" y="420" width="120" height="20" as="geometry" />
        </mxCell>
        <mxCell id="7O9n-pZLVOjYw03UP1dD-34" style="edgeStyle=orthogonalEdgeStyle;rounded=0;orthogonalLoop=1;jettySize=auto;html=1;entryX=1;entryY=0;entryDx=0;entryDy=0;" parent="1" source="7O9n-pZLVOjYw03UP1dD-14" target="7O9n-pZLVOjYw03UP1dD-17" edge="1">
          <mxGeometry relative="1" as="geometry">
            <mxPoint x="440" y="600" as="targetPoint" />
            <Array as="points">
              <mxPoint x="450" y="450" />
              <mxPoint x="450" y="600" />
            </Array>
          </mxGeometry>
        </mxCell>
        <mxCell id="7O9n-pZLVOjYw03UP1dD-14" value="fd" style="rounded=0;whiteSpace=wrap;html=1;" parent="1" vertex="1">
          <mxGeometry x="294" y="440" width="120" height="20" as="geometry" />
        </mxCell>
        <mxCell id="7O9n-pZLVOjYw03UP1dD-35" style="edgeStyle=orthogonalEdgeStyle;rounded=0;orthogonalLoop=1;jettySize=auto;html=1;entryX=0;entryY=0;entryDx=0;entryDy=0;" parent="1" source="7O9n-pZLVOjYw03UP1dD-15" target="7O9n-pZLVOjYw03UP1dD-7" edge="1">
          <mxGeometry relative="1" as="geometry">
            <mxPoint x="260" y="200" as="targetPoint" />
            <Array as="points">
              <mxPoint x="250" y="470" />
              <mxPoint x="250" y="200" />
            </Array>
          </mxGeometry>
        </mxCell>
        <mxCell id="7O9n-pZLVOjYw03UP1dD-15" value="bk" style="rounded=0;whiteSpace=wrap;html=1;" parent="1" vertex="1">
          <mxGeometry x="294" y="460" width="120" height="20" as="geometry" />
        </mxCell>
        <mxCell id="7O9n-pZLVOjYw03UP1dD-16" value="" style="rounded=0;whiteSpace=wrap;html=1;" parent="1" vertex="1">
          <mxGeometry x="294" y="480" width="120" height="60" as="geometry" />
        </mxCell>
        <mxCell id="7O9n-pZLVOjYw03UP1dD-17" value="prev size" style="rounded=0;whiteSpace=wrap;html=1;" parent="1" vertex="1">
          <mxGeometry x="294" y="600" width="120" height="20" as="geometry" />
        </mxCell>
        <mxCell id="7O9n-pZLVOjYw03UP1dD-18" value="size" style="rounded=0;whiteSpace=wrap;html=1;" parent="1" vertex="1">
          <mxGeometry x="294" y="620" width="120" height="20" as="geometry" />
        </mxCell>
        <mxCell id="7O9n-pZLVOjYw03UP1dD-36" style="edgeStyle=orthogonalEdgeStyle;rounded=0;orthogonalLoop=1;jettySize=auto;html=1;entryX=0.75;entryY=1;entryDx=0;entryDy=0;" parent="1" source="7O9n-pZLVOjYw03UP1dD-19" target="7O9n-pZLVOjYw03UP1dD-6" edge="1">
          <mxGeometry relative="1" as="geometry">
            <mxPoint x="390" y="140" as="targetPoint" />
            <Array as="points">
              <mxPoint x="460" y="650" />
              <mxPoint x="460" y="190" />
              <mxPoint x="380" y="190" />
            </Array>
          </mxGeometry>
        </mxCell>
        <mxCell id="7O9n-pZLVOjYw03UP1dD-19" value="fd" style="rounded=0;whiteSpace=wrap;html=1;" parent="1" vertex="1">
          <mxGeometry x="294" y="640" width="120" height="20" as="geometry" />
        </mxCell>
        <mxCell id="7O9n-pZLVOjYw03UP1dD-37" style="edgeStyle=orthogonalEdgeStyle;rounded=0;orthogonalLoop=1;jettySize=auto;html=1;entryX=0;entryY=0;entryDx=0;entryDy=0;" parent="1" source="7O9n-pZLVOjYw03UP1dD-20" target="7O9n-pZLVOjYw03UP1dD-12" edge="1">
          <mxGeometry relative="1" as="geometry">
            <mxPoint x="290" y="400" as="targetPoint" />
            <Array as="points">
              <mxPoint x="230" y="670" />
              <mxPoint x="230" y="400" />
            </Array>
          </mxGeometry>
        </mxCell>
        <mxCell id="7O9n-pZLVOjYw03UP1dD-20" value="bk" style="rounded=0;whiteSpace=wrap;html=1;" parent="1" vertex="1">
          <mxGeometry x="294" y="660" width="120" height="20" as="geometry" />
        </mxCell>
        <mxCell id="7O9n-pZLVOjYw03UP1dD-21" value="" style="rounded=0;whiteSpace=wrap;html=1;" parent="1" vertex="1">
          <mxGeometry x="294" y="680" width="120" height="60" as="geometry" />
        </mxCell>
        <mxCell id="6Sh2aRhyjVpe4jSGeyy9-4" value="" style="rounded=0;whiteSpace=wrap;html=1;" vertex="1" parent="1">
          <mxGeometry x="390" y="120" width="40" height="50" as="geometry" />
        </mxCell>
        <mxCell id="6Sh2aRhyjVpe4jSGeyy9-5" value="" style="rounded=0;whiteSpace=wrap;html=1;" vertex="1" parent="1">
          <mxGeometry x="430" y="120" width="40" height="50" as="geometry" />
        </mxCell>
        <mxCell id="6Sh2aRhyjVpe4jSGeyy9-6" value="" style="rounded=0;whiteSpace=wrap;html=1;" vertex="1" parent="1">
          <mxGeometry x="470" y="120" width="40" height="50" as="geometry" />
        </mxCell>
        <mxCell id="6Sh2aRhyjVpe4jSGeyy9-7" value="" style="rounded=0;whiteSpace=wrap;html=1;" vertex="1" parent="1">
          <mxGeometry x="510" y="120" width="40" height="50" as="geometry" />
        </mxCell>
        <mxCell id="6Sh2aRhyjVpe4jSGeyy9-8" value="&lt;font style=&quot;font-size: 12px;&quot; face=&quot;Helvetica&quot;&gt;a small bin&lt;/font&gt;" style="text;html=1;strokeColor=none;fillColor=none;align=center;verticalAlign=middle;whiteSpace=wrap;rounded=0;fontSize=20;fontFamily=Architects Daughter;glass=0;" vertex="1" parent="1">
          <mxGeometry x="290" y="70" width="120" height="30" as="geometry" />
        </mxCell>
        <mxCell id="6Sh2aRhyjVpe4jSGeyy9-10" value="" style="shape=curlyBracket;whiteSpace=wrap;html=1;rounded=1;labelPosition=left;verticalLabelPosition=middle;align=right;verticalAlign=middle;rotation=0;direction=south;size=0.5;" vertex="1" parent="1">
          <mxGeometry x="310" y="100" width="80" height="20" as="geometry" />
        </mxCell>
        <mxCell id="6Sh2aRhyjVpe4jSGeyy9-11" value="" style="shape=curlyBracket;whiteSpace=wrap;html=1;rounded=1;labelPosition=left;verticalLabelPosition=middle;align=right;verticalAlign=middle;rotation=90;" vertex="1" parent="1">
          <mxGeometry x="425" y="-5" width="10" height="240" as="geometry" />
        </mxCell>
        <mxCell id="6Sh2aRhyjVpe4jSGeyy9-12" value="&lt;font style=&quot;font-size: 11px;&quot;&gt;small bins的链表&lt;/font&gt;" style="text;html=1;strokeColor=none;fillColor=none;align=center;verticalAlign=middle;whiteSpace=wrap;rounded=0;fontSize=9;" vertex="1" parent="1">
          <mxGeometry x="380" y="90" width="100" height="20" as="geometry" />
        </mxCell>
        <mxCell id="6Sh2aRhyjVpe4jSGeyy9-14" value="......" style="text;html=1;strokeColor=none;fillColor=none;align=center;verticalAlign=middle;whiteSpace=wrap;rounded=0;" vertex="1" parent="1">
          <mxGeometry x="542" y="127" width="60" height="30" as="geometry" />
        </mxCell>
      </root>
    </mxGraphModel>
  </diagram>
</mxfile>
